{"glyphs":{":":{"x_min":0,"x_max":299,"ha":299,"o":"m 202 110 q 202 88 188 74 q 174 60 152 60 q 130 60 116 74 q 102 88 102 110 q 102 120 99 137 q 96 155 96 164 q 96 185 111 198 q 126 212 147 212 q 202 212 202 110 z m 194 467 q 194 445 180 431 q 166 417 144 417 q 122 417 108 431 q 94 445 94 467 q 94 473 92 485 q 89 497 89 503 q 89 524 104 538 q 119 551 140 551 q 194 551 194 467 z"},"$":{"x_min":0,"x_max":693,"ha":693,"o":"m 287 433 l 287 608 q 190 572 190 495 q 190 448 287 433 z m 374 330 l 374 76 q 426 94 460 128 q 499 167 499 212 q 499 297 374 330 z m 374 799 l 374 716 l 376 716 q 423 716 483 700 q 562 679 562 646 q 562 604 518 604 q 499 604 449 614 q 400 625 374 624 l 374 425 q 482 416 543 354 q 599 298 599 218 q 599 120 531 55 q 471 -1 374 -20 l 374 -149 q 374 -168 362 -181 q 349 -193 330 -193 q 287 -193 287 -150 l 287 -26 q 49 -22 49 98 q 49 142 89 142 q 112 142 133 124 q 165 97 181 88 q 220 69 287 66 l 287 343 l 283 343 q 208 346 152 380 q 84 422 84 497 q 84 563 146 623 q 204 677 287 702 l 287 796 q 287 815 300 828 q 313 840 332 840 q 374 840 374 799 z"},"?":{"x_min":0,"x_max":524,"ha":524,"o":"m 181 150 q 161 150 146 166 q 131 181 131 201 q 131 234 193 284 l 310 372 q 373 426 373 471 q 373 527 320 575 q 269 622 211 622 q 180 622 133 590 q 85 559 74 559 q 54 559 40 575 q 25 591 25 611 q 25 649 100 688 q 167 722 211 722 q 309 722 389 645 q 469 568 469 471 q 469 399 423 344 q 396 311 322 258 q 247 204 218 170 q 201 150 181 150 z m 154 -35 q 133 -35 115 -21 q 98 -6 98 14 q 98 44 114 69 q 132 96 161 96 q 208 96 208 39 q 208 12 195 -10 q 179 -35 154 -35 z"},"<":{"x_min":0,"x_max":381,"ha":381,"o":"m 146 300 q 173 280 213 238 q 260 188 278 173 q 295 158 295 140 q 295 122 282 108 q 269 95 251 95 q 238 95 224 105 q 205 119 141 186 q 92 237 46 255 q 9 269 9 295 q 9 320 43 336 q 88 358 143 415 q 218 494 233 506 q 247 518 262 518 q 279 518 293 505 q 306 491 306 473 q 306 457 292 442 q 245 392 146 300 z"},"'":{"x_min":0,"x_max":388,"ha":388,"o":"m 226 706 q 226 691 228 663 q 230 634 230 619 q 230 557 187 557 q 156 557 148 578 q 144 589 144 625 q 144 638 141 665 q 139 692 139 706 q 139 755 143 772 q 152 811 186 811 q 204 811 217 799 q 229 787 229 768 q 229 758 228 737 q 226 716 226 706 z"},"=":{"x_min":0,"x_max":510,"ha":510,"o":"m 158 488 l 386 487 q 430 487 430 444 q 430 400 386 400 l 158 401 q 146 401 124 400 q 102 398 91 398 q 72 398 60 411 q 48 424 48 442 q 48 478 89 485 q 100 488 158 488 z m 186 226 q 218 226 283 224 q 347 223 379 223 q 423 223 423 179 q 423 136 379 136 q 347 136 283 137 q 218 139 186 139 q 171 139 142 137 q 113 135 99 135 q 54 135 54 178 q 54 218 96 222 q 150 226 186 226 z"},"a":{"x_min":0,"x_max":512,"ha":512,"o":"m 449 -32 q 440 -32 416 -11 q 394 9 383 25 q 336 0 300 -13 q 265 -26 241 -26 q 126 -26 74 38 q 25 99 25 224 q 25 342 106 426 q 188 510 300 510 q 343 510 396 488 q 462 460 462 422 q 462 409 452 398 q 447 380 445 337 q 442 295 441 229 q 441 168 450 133 q 455 111 480 47 q 484 38 492 21 l 495 13 q 495 -7 481 -20 q 467 -32 449 -32 z m 348 307 q 348 328 350 353 q 353 377 358 405 q 340 415 327 419 q 314 423 307 423 q 231 423 176 362 q 121 300 121 219 q 121 139 149 99 q 178 59 234 59 q 281 59 314 76 q 332 85 363 113 q 348 243 348 307 z"},"L":{"x_min":0,"x_max":551,"ha":551,"o":"m 500 20 q 445 -6 327 -26 q 218 -45 149 -45 q 100 -45 79 -30 q 49 -10 49 45 l 59 207 q 72 430 72 703 q 72 724 86 738 q 100 753 120 753 q 141 753 155 738 q 169 724 169 703 q 169 427 156 201 l 149 126 q 146 86 146 55 q 274 53 469 115 q 477 117 484 117 q 505 117 520 101 q 532 85 532 66 q 532 35 500 20 z"},"3":{"x_min":0,"x_max":610,"ha":610,"o":"m 295 -22 q 222 -22 163 8 q 97 44 74 108 q 71 117 71 125 q 71 145 86 158 q 101 171 121 171 q 140 171 154 153 l 177 119 q 194 95 224 83 q 254 71 295 71 q 349 71 389 104 q 431 140 431 190 q 431 264 377 308 q 329 346 250 354 q 196 360 196 398 q 196 427 238 442 l 355 471 q 389 483 406 504 q 423 525 423 555 q 424 598 390 624 q 354 651 290 651 q 257 651 226 635 l 170 601 q 154 590 145 590 q 125 590 111 605 q 97 620 97 639 q 97 678 172 713 q 237 745 279 745 q 384 745 445 699 q 511 649 511 557 q 511 442 418 405 q 410 402 399 398 q 464 375 497 327 q 529 279 529 208 q 529 112 461 45 q 393 -22 295 -22 z"},";":{"x_min":0,"x_max":299,"ha":299,"o":"m 201 464 q 201 442 187 428 q 172 414 151 414 q 129 414 115 428 q 101 442 101 464 q 101 470 99 482 q 96 494 96 500 q 96 521 111 535 q 126 549 147 549 q 201 549 201 464 z m 83 -95 q 40 -95 40 -49 q 40 -17 82 45 q 125 109 153 109 q 171 109 185 96 q 198 83 198 65 q 198 48 164 8 q 129 -34 126 -53 q 122 -95 83 -95 z"},"J":{"x_min":0,"x_max":665,"ha":665,"o":"m 584 632 q 576 632 554 635 q 533 639 521 639 q 498 639 465 638 l 468 580 q 468 216 419 51 q 387 -59 307 -59 q 222 -59 138 3 q 46 71 46 160 q 46 220 95 220 q 145 220 145 161 q 145 120 202 80 q 257 42 307 42 q 347 42 362 288 q 370 404 370 580 q 370 593 367 632 l 337 632 q 318 632 280 633 q 242 634 222 634 q 201 634 186 648 q 171 662 171 685 q 171 735 239 735 q 256 735 289 734 q 321 732 337 732 q 368 732 429 736 q 491 740 521 740 q 633 740 633 683 q 633 664 620 648 q 605 632 584 632 z"},"V":{"x_min":0,"x_max":650,"ha":650,"o":"m 638 669 q 607 624 588 574 l 551 467 l 420 112 q 397 50 366 -10 q 351 -39 322 -39 q 285 -39 270 -1 q 210 147 138 426 l 100 561 q 71 662 71 693 q 71 715 86 729 q 101 743 121 743 q 158 743 168 703 l 187 618 l 233 452 q 280 270 325 139 l 328 146 l 458 501 l 500 621 q 528 693 559 730 q 575 750 597 750 q 617 750 632 735 q 647 720 647 699 q 647 684 638 669 z"},"\"":{"x_min":0,"x_max":424,"ha":424,"o":"m 144 545 q 144 537 146 521 q 148 505 148 497 q 148 479 135 467 q 122 455 104 455 q 57 455 57 539 q 57 571 58 635 q 60 700 60 732 q 60 751 72 763 q 84 775 103 775 q 122 775 134 763 q 146 751 146 732 q 146 701 145 638 q 144 576 144 545 z m 335 730 q 335 722 334 708 q 333 694 333 688 l 328 497 q 327 453 285 453 q 266 453 253 465 q 241 478 241 496 l 246 690 q 247 729 252 744 q 262 773 292 773 q 311 773 323 761 q 335 749 335 730 z"},"7":{"x_min":0,"x_max":610,"ha":610,"o":"m 563 638 l 519 586 q 456 512 402 406 l 313 211 q 304 190 272 99 q 247 26 225 -9 q 211 -32 186 -32 q 167 -32 152 -19 q 137 -5 137 14 q 137 33 168 109 l 278 378 q 351 538 427 625 l 437 635 l 191 640 l 82 643 q 34 647 34 689 q 34 710 48 723 q 62 736 82 736 q 144 736 267 732 q 390 729 452 729 l 541 729 q 593 729 593 698 q 593 675 563 638 z"},"S":{"x_min":0,"x_max":693,"ha":693,"o":"m 65 122 q 65 142 79 155 q 94 168 115 168 q 139 168 157 141 q 182 104 201 90 q 243 63 322 63 q 397 63 462 96 q 545 138 545 212 q 545 274 476 310 q 417 340 330 343 q 252 346 198 376 q 129 416 129 490 q 129 577 228 648 q 322 716 422 716 q 470 716 529 700 q 608 679 608 646 q 608 604 564 604 q 545 604 496 614 q 447 625 420 624 q 344 623 291 586 q 236 549 236 495 q 236 455 309 438 q 335 432 413 426 q 524 418 587 356 q 645 299 645 218 q 645 102 538 32 q 444 -28 321 -28 q 232 -28 158 6 q 67 48 65 122 z"},"}":{"x_min":0,"x_max":366,"ha":366,"o":"m 217 280 q 190 293 169 332 q 149 368 149 397 q 149 418 152 497 q 155 576 155 597 q 155 693 87 700 q 70 701 38 705 q 3 713 3 739 q 3 765 31 780 q 55 793 82 793 q 113 793 146 779 q 244 737 244 583 l 241 485 l 240 388 l 240 375 q 264 368 300 334 q 340 297 340 271 q 340 250 294 217 q 248 184 248 144 q 248 130 252 104 q 256 77 256 63 q 256 -23 215 -98 q 167 -188 88 -188 q 52 -188 37 -182 q 12 -171 12 -141 q 12 -108 37 -100 q 48 -96 88 -96 q 122 -96 146 -30 q 165 22 165 63 q 165 80 161 112 q 157 144 157 160 q 157 183 179 223 q 197 258 217 280 z"},"Z":{"x_min":0,"x_max":693,"ha":693,"o":"m 618 611 l 552 566 q 463 497 351 346 l 180 96 q 167 78 156 62 l 346 69 q 470 75 536 75 q 601 75 631 69 q 671 62 672 29 q 673 5 657 -9 q 642 -21 620 -21 q 606 -21 578 -19 q 549 -18 535 -18 q 461 -18 312 -21 q 164 -25 89 -25 q 33 -25 33 24 q 33 57 63 105 l 116 178 l 292 423 q 401 567 495 647 l 324 637 l 126 637 q 121 637 111 636 q 100 636 95 636 q 43 636 43 686 q 43 719 70 730 q 86 737 123 737 q 157 737 223 730 q 290 723 324 723 q 361 723 436 728 q 511 732 549 732 q 675 732 675 685 q 675 653 618 611 z"},"x":{"x_min":0,"x_max":590,"ha":590,"o":"m 517 419 l 445 352 l 358 266 l 518 58 q 530 42 530 27 q 530 8 515 -7 q 500 -21 482 -21 q 463 -21 448 -3 q 403 49 290 198 l 195 100 q 166 74 111 19 q 95 1 77 1 q 59 1 44 16 q 30 31 30 50 q 30 65 42 81 q 56 99 84 124 q 118 154 129 165 l 233 274 l 169 366 q 130 421 102 447 q 83 463 83 483 q 83 502 97 518 q 111 533 129 533 q 158 533 216 458 l 300 341 l 396 429 q 456 485 477 517 q 492 540 514 540 q 533 540 547 525 q 562 511 562 493 q 562 466 517 419 z"},")":{"x_min":0,"x_max":366,"ha":366,"o":"m 340 284 q 340 -84 133 -200 q 113 -211 98 -211 q 82 -211 69 -199 q 56 -187 56 -171 q 56 -149 84 -126 q 107 -109 130 -91 q 242 24 242 272 q 242 369 215 468 q 184 583 130 644 q 108 667 86 689 q 56 722 56 739 q 56 756 69 770 q 82 784 99 784 q 110 784 130 771 q 227 703 287 552 q 340 416 340 284 z"},"&":{"x_min":0,"x_max":654,"ha":654,"o":"m 334 529 q 396 581 396 632 q 396 654 389 665 q 381 676 366 676 q 357 676 340 645 q 322 614 322 604 q 322 571 334 529 z m 297 396 q 213 340 183 310 q 124 250 124 185 q 124 132 166 98 q 206 67 260 67 q 359 67 431 151 q 394 206 297 396 z m 235 604 q 235 653 275 707 q 319 764 366 764 q 422 764 454 725 q 483 689 483 632 q 483 533 366 444 q 403 362 481 237 q 491 264 496 292 q 504 342 507 354 q 520 395 546 395 q 567 395 579 373 q 588 354 588 332 q 588 233 538 148 q 619 21 619 -3 q 619 -21 605 -33 q 591 -46 574 -46 q 552 -46 536 -21 l 480 76 q 382 -20 260 -20 q 169 -20 104 37 q 37 95 37 185 q 37 280 108 357 q 150 402 260 476 q 235 542 235 604 z"},"_":{"x_min":0,"x_max":627,"ha":627,"o":"m 475 -168 q 440 -168 371 -166 q 302 -164 267 -164 l 50 -164 q 39 -164 16 -166 q -6 -168 -17 -168 l -17 -78 q 32 -78 129 -77 q 227 -77 276 -77 q 311 -77 379 -79 q 448 -82 482 -82 l 646 -78 l 646 -168 z"},"v":{"x_min":0,"x_max":486,"ha":486,"o":"m 293 25 q 292 -20 249 -20 q 213 -20 197 22 l 122 221 l 35 445 q 30 458 30 467 q 30 487 45 501 q 61 516 81 516 q 110 516 123 486 l 247 145 q 283 223 339 371 q 352 410 380 481 q 396 513 423 513 q 443 513 458 499 q 474 484 474 465 q 474 446 393 256 z"},"O":{"x_min":0,"x_max":798,"ha":798,"o":"m 392 -30 q 254 -30 158 53 q 57 141 57 279 q 57 448 157 586 q 269 740 436 740 q 596 740 674 667 q 756 592 756 430 q 756 261 664 125 q 559 -30 392 -30 z m 436 640 q 316 640 233 521 q 156 411 156 279 q 156 185 226 126 q 293 70 392 70 q 510 70 587 190 q 656 297 656 430 q 656 547 604 594 q 554 640 436 640 z"},"(":{"x_min":0,"x_max":366,"ha":366,"o":"m 340 739 q 340 722 310 689 q 287 667 265 644 q 211 583 180 468 q 153 369 153 272 q 153 24 266 -91 q 288 -109 311 -126 q 339 -149 339 -171 q 339 -187 327 -199 q 314 -211 297 -211 q 283 -211 262 -200 q 56 -84 56 284 q 56 416 109 552 q 168 703 265 771 q 285 784 296 784 q 313 784 327 770 q 340 756 340 739 z"},"C":{"x_min":0,"x_max":603,"ha":603,"o":"m 539 548 q 508 548 492 584 q 479 616 467 623 q 457 628 416 628 q 345 628 259 520 q 142 374 142 244 q 142 181 182 135 q 224 88 282 88 q 333 88 383 114 q 412 129 470 172 q 498 192 512 192 q 533 192 547 177 q 562 161 562 141 q 562 119 543 103 q 414 -12 282 -12 q 181 -12 111 66 q 44 141 44 244 q 44 409 183 583 q 298 728 416 728 q 440 728 459 726 q 478 724 493 719 q 510 744 537 744 q 571 744 580 699 q 587 660 587 602 q 587 582 577 567 q 563 548 539 548 z"},"W":{"x_min":0,"x_max":1040,"ha":1040,"o":"m 695 -47 q 672 -47 655 -34 q 636 -20 636 2 q 613 61 607 98 q 602 135 569 309 q 544 440 536 520 q 492 358 442 247 q 385 117 368 44 q 374 33 374 22 q 374 0 354 -14 q 336 -27 314 -27 q 248 -27 248 32 l 233 94 l 180 333 q 148 454 71 680 q 68 691 68 700 q 68 745 119 745 q 151 745 168 710 q 177 693 204 609 q 232 521 261 396 l 309 181 q 361 302 413 476 q 444 582 461 623 q 505 730 546 730 q 581 730 595 696 q 612 654 630 496 q 640 416 664 303 l 706 111 q 771 269 869 537 q 875 551 894 629 q 908 686 928 718 q 946 745 974 745 q 1023 745 1023 696 q 1023 688 1008 647 l 988 594 l 961 507 l 816 155 q 796 97 748 -14 q 730 -47 695 -47 z"},"A":{"x_min":0,"x_max":731,"ha":731,"o":"m 610 -15 q 565 -15 532 101 q 520 145 500 254 q 451 248 370 230 l 240 203 q 216 139 157 16 q 141 -11 114 -11 q 95 -11 79 3 q 64 17 64 38 q 64 62 138 216 q 129 229 129 246 q 129 285 177 296 q 233 401 318 537 q 434 722 462 722 q 500 722 515 668 l 545 504 l 618 165 l 646 87 q 660 48 660 35 q 660 14 645 0 q 630 -15 610 -15 z m 438 543 l 298 318 q 357 333 478 355 z"},"f":{"x_min":0,"x_max":508,"ha":508,"o":"m 396 687 q 278 687 264 522 l 262 492 q 345 498 370 498 q 447 498 447 449 q 447 414 409 407 q 393 404 370 405 q 348 405 258 398 l 254 287 q 254 256 256 196 q 258 135 258 105 q 258 13 247 -39 q 239 -78 202 -78 q 182 -78 167 -65 q 153 -52 153 -33 q 153 -29 154 -23 q 165 41 165 115 l 163 249 l 163 390 q 102 385 86 385 q 37 385 37 433 q 37 481 122 483 l 169 485 q 170 512 176 559 q 189 667 231 719 q 282 781 390 781 q 459 781 459 733 q 459 687 396 687 z"},"Q":{"x_min":0,"x_max":876,"ha":876,"o":"m 804 -214 q 782 -214 688 -130 l 571 -23 q 489 -57 408 -57 q 261 -57 149 61 q 38 178 38 326 q 38 500 167 622 q 294 740 468 740 q 650 740 745 603 q 825 486 825 300 q 825 138 667 28 l 773 -70 l 836 -124 q 854 -142 854 -162 q 854 -182 840 -198 q 825 -214 804 -214 z m 468 639 q 334 639 237 549 q 138 458 138 326 q 138 219 220 132 q 303 44 408 44 q 441 44 477 53 q 383 135 383 182 q 383 204 399 218 q 415 232 434 232 q 458 232 476 208 q 524 146 585 96 q 724 177 724 300 q 724 445 665 535 q 598 639 468 639 z"},"w":{"x_min":0,"x_max":684,"ha":684,"o":"m 652 437 q 614 278 553 77 q 539 33 507 -14 q 490 -40 461 -40 q 408 -39 378 93 q 368 135 358 207 l 342 316 l 302 223 l 228 21 q 221 2 209 -7 q 194 -36 162 -37 q 125 -38 90 109 q 73 185 55 314 l 43 387 q 37 431 37 461 q 37 481 52 495 q 66 508 86 508 q 124 508 132 468 q 139 439 143 396 l 150 325 l 179 105 q 233 256 291 452 q 307 506 347 506 q 386 506 399 446 q 412 389 431 270 q 451 147 466 78 l 501 211 l 564 477 q 572 507 606 507 q 627 507 642 493 q 657 479 657 459 q 657 457 652 437 z"},"-":{"x_min":0,"x_max":417,"ha":417,"o":"m 332 232 q 265 225 95 225 q 54 225 54 263 q 54 301 95 301 q 134 301 211 305 q 288 308 327 308 q 370 308 370 270 q 370 236 332 232 z"},"E":{"x_min":0,"x_max":625,"ha":625,"o":"m 544 657 q 538 657 529 660 q 447 683 370 683 q 330 683 283 676 q 235 668 181 653 q 185 622 185 603 q 185 535 177 416 l 391 437 q 485 446 506 446 q 528 446 542 433 q 557 419 557 396 q 557 352 512 346 l 396 336 l 170 315 q 168 281 167 250 q 166 219 166 192 q 166 84 182 65 q 193 51 258 51 q 289 51 349 53 q 410 55 441 55 q 451 55 470 58 q 489 61 498 61 q 550 61 550 10 q 550 -31 508 -39 q 462 -48 310 -48 q 158 -48 115 -8 q 68 35 68 192 q 68 223 70 260 q 71 297 74 340 q 68 352 68 364 q 68 381 78 394 q 87 535 87 603 q 87 621 83 656 q 78 690 78 708 q 78 767 126 767 q 147 767 162 752 q 220 768 272 776 q 324 784 370 784 q 489 784 560 755 q 592 742 592 708 q 592 689 580 674 q 565 657 544 657 z"},"s":{"x_min":0,"x_max":487,"ha":487,"o":"m 397 376 q 371 376 360 394 q 353 407 347 447 q 311 438 234 413 q 156 381 155 335 q 170 330 184 328 q 296 308 351 272 q 431 221 431 124 q 431 44 362 4 q 305 -29 217 -29 q 153 -29 95 -8 q 20 20 20 68 q 20 88 35 103 q 51 117 70 117 q 85 117 109 94 q 121 83 162 75 q 195 69 217 69 q 258 69 290 79 q 335 93 335 124 q 335 190 242 214 l 191 225 q 126 239 99 258 q 60 286 60 341 q 60 443 156 486 q 185 500 250 518 q 314 536 342 549 q 362 558 385 558 q 406 558 420 544 q 433 530 433 508 q 433 494 439 467 q 445 439 445 425 q 445 403 432 390 q 418 376 397 376 z"},">":{"x_min":0,"x_max":381,"ha":381,"o":"m 359 324 q 359 306 341 289 q 225 181 98 100 q 84 91 72 91 q 54 91 41 105 q 28 119 28 136 q 28 156 47 170 l 237 315 q 193 344 129 403 q 51 477 51 505 q 51 523 65 536 q 79 549 96 549 q 114 549 129 533 q 240 408 331 361 q 359 347 359 324 z"},"l":{"x_min":0,"x_max":274,"ha":274,"o":"m 192 384 l 185 141 q 185 103 181 28 q 176 -21 133 -21 q 85 -21 85 29 q 85 88 90 206 q 96 325 96 384 q 96 461 98 560 q 101 660 101 737 q 101 786 148 786 q 197 786 197 737 q 197 660 194 560 q 192 461 192 384 z"},"8":{"x_min":0,"x_max":610,"ha":610,"o":"m 300 -26 q 197 -26 133 19 q 61 69 60 167 q 58 325 170 382 q 83 435 83 532 q 83 625 150 686 q 214 744 306 745 q 511 747 511 542 q 511 484 487 452 q 468 426 414 398 q 486 361 516 319 q 550 269 550 182 q 550 82 476 25 q 408 -26 300 -26 z m 304 658 q 241 658 208 622 q 178 589 179 532 q 179 464 291 435 q 350 452 375 469 q 416 497 416 542 q 416 609 386 636 q 360 658 304 658 z m 295 349 q 218 312 192 286 q 151 246 154 172 q 156 111 210 81 q 250 59 300 59 q 386 59 420 100 q 447 132 447 197 q 447 261 397 300 q 364 327 295 349 z"},"\\":{"x_min":0,"x_max":550,"ha":550,"o":"m 449 -69 q 425 -69 410 -44 q 392 -13 353 78 l 211 442 q 180 516 94 671 q 86 685 86 697 q 86 716 101 730 q 115 744 134 744 q 156 744 171 722 q 227 638 292 483 l 392 232 q 444 99 490 1 q 496 -11 496 -22 q 496 -41 482 -55 q 468 -69 449 -69 z"},"e":{"x_min":0,"x_max":548,"ha":548,"o":"m 296 -22 q 186 -22 117 33 q 42 94 42 204 q 42 331 104 417 q 171 510 283 510 q 364 510 415 483 q 478 449 478 379 q 478 331 423 291 q 398 273 319 236 l 133 147 q 160 107 201 86 q 242 66 296 66 q 330 66 375 79 q 433 95 449 121 q 466 147 485 147 q 502 147 515 134 q 529 121 529 104 q 529 50 441 11 q 367 -22 296 -22 z m 283 422 q 223 422 184 376 q 144 330 125 237 l 274 309 q 363 352 400 383 q 358 422 283 422 z"},"b":{"x_min":0,"x_max":593,"ha":593,"o":"m 296 -21 q 221 -21 160 9 q 145 -15 122 -15 q 104 -15 91 -2 q 78 11 78 31 q 78 43 79 68 q 80 93 80 106 q 80 158 77 261 q 75 364 75 416 q 75 452 75 551 q 76 650 76 687 q 76 716 88 739 q 104 769 132 769 q 169 769 169 727 q 169 720 167 707 q 164 693 164 687 l 163 580 l 162 455 q 204 484 242 498 q 281 513 314 513 q 419 513 485 432 q 546 356 546 246 q 546 135 475 57 q 403 -21 296 -21 z m 314 420 q 274 420 232 398 q 212 387 162 350 l 161 265 l 162 189 l 162 109 q 186 98 228 82 q 258 72 296 72 q 367 72 412 122 q 458 172 458 246 q 458 319 421 368 q 381 420 314 420 z"},"%":{"x_min":0,"x_max":820,"ha":820,"o":"m 216 508 q 148 508 108 556 q 72 600 72 669 q 72 717 122 760 q 169 802 218 802 q 289 802 331 755 q 371 709 371 638 q 371 579 321 542 q 276 508 216 508 z m 603 717 q 584 688 564 639 l 529 560 l 433 353 l 323 122 q 308 84 274 11 q 260 -15 237 -15 q 221 -15 208 -3 q 195 8 195 25 q 195 33 198 42 q 222 107 275 214 q 338 339 357 384 l 489 677 q 516 742 538 766 q 553 783 569 783 q 585 783 598 770 q 611 758 611 741 q 611 730 603 717 z m 615 -9 q 549 -9 505 30 q 459 72 459 138 q 459 210 500 258 q 543 309 614 309 q 681 309 730 271 q 786 230 786 165 q 786 90 738 41 q 690 -9 615 -9 z m 216 720 q 194 720 174 705 q 153 689 153 669 q 153 630 169 610 q 185 590 216 590 q 243 590 264 602 q 289 616 289 638 q 289 679 271 699 q 252 720 216 720 z m 614 227 q 579 227 559 200 q 541 176 541 138 q 541 105 562 89 q 583 72 626 72 q 665 72 684 95 q 704 119 704 165 q 704 193 673 211 q 647 227 614 227 z"},"m":{"x_min":0,"x_max":777,"ha":777,"o":"m 688 -41 q 648 -41 641 2 q 632 56 624 153 l 607 305 q 602 338 590 371 q 574 415 554 415 q 536 415 487 384 q 440 355 425 338 q 425 292 428 247 l 442 116 q 452 39 452 -11 q 452 -33 438 -47 q 425 -61 404 -61 q 383 -61 369 -47 q 356 -33 356 -11 q 356 48 344 163 q 332 279 332 338 q 332 390 317 418 q 283 403 248 368 l 190 303 q 183 292 166 272 q 166 243 160 186 q 155 129 155 102 q 155 87 159 61 q 164 34 164 22 q 164 2 149 -11 q 134 -25 114 -25 q 59 -25 59 101 q 59 130 64 188 q 70 246 70 275 q 70 301 65 353 q 61 405 61 431 q 61 542 110 542 q 129 542 145 525 q 161 509 161 489 q 161 480 159 460 q 156 441 156 431 l 157 379 q 183 432 232 474 q 281 516 316 516 q 393 516 421 440 q 448 476 485 493 q 522 511 570 511 q 652 511 682 423 q 688 406 702 286 q 715 202 737 6 q 738 -13 724 -27 q 709 -41 688 -41 z"},"#":{"x_min":0,"x_max":843,"ha":843,"o":"m 270 282 l 514 282 l 569 484 l 331 484 z m 178 282 l 238 484 l 107 484 q 61 484 61 533 q 61 570 133 570 l 262 570 q 275 627 301 725 q 315 770 358 770 q 374 770 385 757 q 395 744 395 728 q 395 708 382 664 q 361 586 357 570 l 594 570 q 611 629 640 728 q 652 770 688 770 q 729 770 729 731 q 729 698 688 570 l 783 570 q 833 570 833 534 q 833 482 778 482 q 771 482 755 483 q 740 484 732 484 l 661 484 l 609 282 l 709 282 q 745 282 759 276 q 785 267 785 237 q 785 192 742 192 l 585 192 l 541 34 q 528 -14 486 -14 q 446 -14 446 25 q 446 54 462 109 q 485 186 486 192 l 242 192 q 228 135 191 24 q 177 -10 143 -10 q 104 -10 104 28 q 104 47 115 83 q 132 138 149 192 l 56 192 q 16 192 16 241 q 16 260 32 271 q 46 282 66 282 z"},",":{"x_min":0,"x_max":277,"ha":277,"o":"m 139 -168 q 122 -168 109 -155 q 97 -142 97 -125 q 97 -110 127 -41 q 153 20 167 46 q 180 69 201 69 q 219 69 231 56 q 244 42 244 25 q 244 14 174 -142 q 163 -168 139 -168 z"},"n":{"x_min":0,"x_max":523,"ha":523,"o":"m 442 -35 q 400 -35 395 11 l 381 118 q 375 175 375 225 q 375 239 376 271 q 378 304 378 318 q 378 423 339 423 q 284 423 234 358 q 189 299 164 209 q 163 190 160 161 q 157 137 157 114 q 157 99 160 70 q 163 41 163 26 q 163 4 149 -10 q 136 -23 115 -23 q 93 -23 80 -10 q 67 4 67 26 q 67 41 64 70 q 61 99 61 114 q 61 164 68 253 q 75 342 75 393 q 75 408 73 439 q 71 470 71 485 q 71 506 85 520 q 99 533 120 533 q 165 533 169 470 l 170 413 q 252 522 339 522 q 417 522 448 453 q 469 407 471 317 l 471 268 l 470 223 q 470 182 481 118 q 491 54 491 14 q 491 -8 477 -21 q 463 -35 442 -35 z"},"h":{"x_min":0,"x_max":578,"ha":578,"o":"m 477 -30 q 442 -30 431 7 q 420 47 411 121 q 402 191 402 237 q 402 250 403 275 q 404 301 404 314 q 404 406 358 406 q 296 406 248 350 q 223 321 179 240 q 179 54 164 20 q 150 -11 121 -11 q 101 -11 86 3 q 71 17 71 36 q 71 43 75 58 q 79 70 81 129 l 82 201 l 83 560 q 87 621 87 642 q 87 667 82 689 q 78 711 78 735 q 78 755 92 769 q 106 782 126 782 q 167 782 173 739 q 181 692 181 654 q 181 603 178 547 q 175 494 175 440 l 176 397 q 216 451 261 477 q 307 504 358 504 q 439 504 470 451 q 491 414 494 326 l 498 233 l 508 131 q 515 74 524 31 q 526 22 526 17 q 526 -3 512 -17 q 497 -30 477 -30 z"},"z":{"x_min":0,"x_max":538,"ha":538,"o":"m 471 395 q 427 343 359 244 q 281 128 244 81 q 295 83 333 83 q 353 83 390 76 q 428 68 447 68 q 468 68 482 54 q 495 41 495 19 q 495 -3 482 -17 q 468 -30 447 -30 q 428 -30 390 -23 q 353 -16 333 -16 q 224 -16 125 -36 q 115 -38 107 -38 q 60 -38 60 4 q 60 28 84 51 q 211 166 361 410 q 296 406 267 406 q 195 406 119 417 q 75 423 75 465 q 75 487 88 501 q 102 516 122 516 q 146 516 194 510 q 242 504 267 504 q 300 504 367 509 q 433 514 466 514 q 508 514 508 479 q 508 440 471 395 z"},"B":{"x_min":0,"x_max":630,"ha":630,"o":"m 433 20 q 323 -23 152 -23 q 131 -23 112 -4 q 93 16 93 37 l 93 179 q 93 249 102 378 q 112 518 113 581 q 112 625 118 714 q 122 739 134 747 q 201 767 285 767 q 371 767 450 708 q 542 641 542 542 q 542 417 444 344 q 517 313 553 275 q 590 237 590 192 q 590 133 526 78 q 481 39 433 20 z m 285 667 q 232 667 210 664 l 209 579 l 200 390 q 269 384 274 384 q 348 390 395 430 q 445 474 445 542 q 445 588 394 628 q 342 667 285 667 z m 340 276 l 288 285 q 282 285 269 284 q 256 283 249 283 q 223 283 193 288 q 190 226 190 178 l 190 77 q 318 81 398 113 q 433 126 464 154 q 494 179 494 192 q 494 215 431 244 q 384 266 340 276 z"},"K":{"x_min":0,"x_max":611,"ha":611,"o":"m 563 -20 q 489 -20 352 110 l 206 257 l 206 250 l 205 -5 q 205 -54 163 -54 q 135 -54 118 -29 q 104 -9 104 14 q 104 128 111 356 q 118 583 118 697 q 118 718 132 733 q 146 748 167 748 q 188 748 201 733 q 215 718 215 697 q 215 650 209 550 q 204 453 204 402 q 270 464 352 558 l 492 720 q 509 739 529 739 q 549 739 564 725 q 579 710 579 689 q 579 657 453 517 q 366 422 273 331 q 332 269 457 154 l 508 111 q 536 89 568 79 q 607 66 607 30 q 607 14 597 -1 q 584 -20 563 -20 z"},"R":{"x_min":0,"x_max":628,"ha":628,"o":"m 550 -5 q 531 -5 515 10 q 354 170 156 225 l 160 129 l 162 33 q 162 12 148 -3 q 134 -17 113 -17 q 92 -17 78 -3 q 64 12 64 33 q 64 72 61 148 q 57 225 57 263 q 57 308 67 397 q 77 486 77 530 q 77 555 72 604 q 67 653 67 678 q 67 706 83 727 q 102 752 134 750 l 252 741 q 319 732 365 708 q 562 603 562 452 q 562 377 495 320 q 441 274 360 250 q 512 169 587 79 q 600 63 600 45 q 600 25 585 10 q 570 -5 550 -5 z m 239 640 l 167 646 l 171 587 q 175 551 175 528 q 175 489 168 431 l 158 333 q 165 333 179 333 q 194 333 201 333 q 326 333 388 366 q 415 381 438 405 q 464 433 464 452 q 464 520 387 578 q 316 632 239 640 z"},"T":{"x_min":0,"x_max":680,"ha":680,"o":"m 665 617 q 629 617 554 623 q 480 628 442 627 l 408 627 q 409 560 421 409 q 432 268 432 189 q 432 172 435 138 q 438 103 438 85 q 438 52 428 28 q 414 -4 385 -4 q 366 -4 350 10 q 334 23 334 45 q 334 52 337 67 q 339 82 339 89 q 339 113 336 161 q 333 208 333 233 q 333 303 322 429 q 310 566 309 625 l 264 625 q 157 625 96 641 q 57 651 57 689 q 57 709 69 724 q 84 741 107 740 q 124 739 185 731 q 234 725 264 725 q 293 725 353 726 q 413 728 442 728 q 479 728 553 722 q 627 717 665 717 q 686 717 700 702 q 714 688 714 667 q 714 646 700 631 q 686 617 665 617 z"},"P":{"x_min":0,"x_max":521,"ha":521,"o":"m 202 287 q 188 287 142 293 q 138 219 138 35 q 138 15 125 2 q 113 -12 94 -12 q 74 -12 62 2 q 49 15 49 35 l 49 178 q 49 250 58 380 q 67 521 68 583 l 68 650 q 68 698 74 720 q 85 763 122 757 q 138 762 167 765 q 195 767 237 767 q 327 767 405 706 q 491 639 491 544 q 491 423 399 351 q 317 287 202 287 z m 226 674 q 205 674 188 673 q 171 672 159 670 l 158 581 l 148 386 l 202 380 q 284 380 340 421 q 401 467 401 544 q 401 599 343 638 q 289 674 226 674 z"},"|":{"x_min":0,"x_max":421,"ha":421,"o":"m 217 837 q 259 837 259 794 l 259 -120 q 258 -177 217 -177 q 188 -177 178 -140 q 172 -120 172 12 l 172 794 q 172 813 185 825 q 198 837 217 837 z"},"t":{"x_min":0,"x_max":471,"ha":471,"o":"m 395 416 q 384 416 370 417 q 356 418 346 418 q 335 418 280 411 l 289 122 l 290 101 l 290 76 q 292 -31 239 -31 q 219 -31 205 -19 q 190 -6 190 13 q 190 32 192 69 q 193 106 193 125 l 184 410 q 148 411 75 418 q 32 424 32 466 q 32 488 45 502 q 58 516 79 516 l 181 508 q 181 533 179 574 q 177 616 177 635 q 177 655 191 669 q 205 682 226 682 q 270 682 277 610 q 278 592 278 567 l 277 539 l 277 508 q 337 516 346 516 q 397 516 413 511 q 442 501 442 465 q 442 444 429 430 q 416 416 395 416 z"},"M":{"x_min":0,"x_max":883,"ha":883,"o":"m 793 -41 q 767 -41 750 -13 q 735 10 724 65 l 706 149 q 686 227 643 494 l 545 199 l 516 106 q 499 51 479 16 q 459 -21 424 -21 q 396 -21 379 10 q 368 31 359 62 l 345 117 q 296 289 258 486 l 241 398 l 178 141 q 174 95 153 6 q 139 -32 105 -32 q 81 -32 67 -15 q 55 0 55 21 q 55 103 88 222 l 142 418 l 170 572 q 192 680 216 713 q 235 742 264 742 q 296 742 312 706 q 331 662 353 528 q 378 368 433 181 q 505 369 558 572 l 573 644 q 582 687 596 713 q 615 749 648 749 q 690 749 712 668 q 720 640 731 553 q 760 332 803 176 l 827 92 q 845 24 845 9 q 845 -12 829 -26 q 813 -41 793 -41 z"},"g":{"x_min":0,"x_max":531,"ha":531,"o":"m 470 210 l 458 46 q 456 -51 438 -113 q 417 -192 368 -230 q 310 -275 199 -275 q 134 -275 90 -267 q 28 -254 28 -216 q 28 -172 71 -172 q 88 -172 129 -181 q 170 -189 220 -188 q 314 -187 350 -98 q 373 -38 375 85 q 348 37 312 12 q 275 -12 229 -12 q 140 -12 85 48 q 29 108 29 205 q 29 336 105 417 q 183 500 318 500 q 363 500 394 488 q 425 477 441 453 q 493 452 493 395 q 493 360 483 302 q 472 235 470 210 z m 313 422 q 220 422 169 358 q 124 300 124 211 q 124 141 151 105 q 178 69 231 69 q 281 69 327 125 q 369 176 375 227 q 385 279 397 392 q 377 407 356 415 q 335 422 313 422 z"},"j":{"x_min":0,"x_max":403,"ha":403,"o":"m 228 618 q 205 618 188 634 q 171 651 171 674 q 171 697 188 714 q 205 730 228 730 q 251 730 269 714 q 286 697 286 674 q 286 651 269 634 q 251 618 228 618 z m 224 -113 q 225 -56 208 179 l 191 448 q 191 473 205 492 q 219 511 240 511 q 257 511 273 499 q 290 486 291 474 l 307 192 l 320 -108 q 320 -176 280 -231 q 236 -292 173 -292 q 68 -292 -3 -130 q -9 -117 -9 -106 q -9 -87 7 -73 q 22 -59 42 -59 q 70 -59 102 -122 q 109 -139 129 -170 q 148 -194 173 -194 q 194 -194 209 -162 q 221 -138 224 -113 z"},"i":{"x_min":0,"x_max":280,"ha":280,"o":"m 161 618 q 138 618 121 635 q 104 651 104 675 q 104 698 121 715 q 138 731 161 731 q 185 731 201 715 q 218 698 218 675 q 218 651 201 635 q 185 618 161 618 z m 183 222 q 183 192 185 134 q 187 76 187 46 q 187 25 173 11 q 160 -2 139 -2 q 118 -2 104 11 q 91 25 91 46 q 91 76 89 134 q 87 192 87 222 q 87 268 92 336 q 97 405 97 451 q 97 473 111 486 q 124 500 145 500 q 166 500 179 486 q 193 473 193 451 q 193 405 188 336 q 183 268 183 222 z"},"y":{"x_min":0,"x_max":521,"ha":521,"o":"m 494 436 l 325 70 q 262 -63 229 -153 l 197 -248 q 184 -283 153 -283 q 132 -283 117 -269 q 103 -256 103 -236 q 103 -187 208 47 l 33 383 l 11 419 q -2 441 -2 457 q -2 477 13 492 q 29 507 48 507 q 70 507 83 490 q 166 375 261 162 l 333 330 q 372 417 408 480 q 424 508 449 508 q 469 508 485 494 q 500 479 500 460 q 500 449 494 436 z"},"@":{"x_min":0,"x_max":931,"ha":931,"o":"m 638 201 q 586 201 548 216 q 511 231 488 261 q 461 235 436 222 q 411 209 387 209 q 333 209 285 253 q 237 297 237 350 q 237 440 308 515 q 379 590 469 590 q 490 590 503 575 q 517 560 517 538 q 517 509 468 495 q 403 476 376 452 q 337 417 337 350 q 337 336 350 323 q 365 308 388 309 q 430 311 466 388 q 499 456 524 456 q 545 456 558 440 q 570 425 570 403 q 570 394 567 374 q 564 354 564 345 q 564 313 591 305 q 602 301 638 301 q 705 301 731 334 q 756 363 756 431 q 756 551 660 626 q 572 696 450 696 q 308 696 227 588 q 154 493 154 348 q 154 214 240 122 q 329 26 468 26 q 508 26 558 42 l 643 73 q 665 81 671 81 q 691 81 706 65 q 720 49 720 28 q 720 -18 616 -47 q 538 -68 469 -68 q 400 -68 328 -42 q 256 -15 205 29 q 54 160 54 348 q 54 535 157 661 q 267 796 450 796 q 615 796 732 697 q 856 592 856 431 q 856 321 802 262 q 746 201 638 201 z"},".":{"x_min":0,"x_max":249,"ha":249,"o":"m 130 -45 q 105 -45 87 -28 q 70 -10 70 15 q 70 40 87 58 q 105 76 130 76 q 155 76 173 58 q 191 40 191 15 q 191 -10 173 -28 q 155 -45 130 -45 z"},"p":{"x_min":0,"x_max":535,"ha":535,"o":"m 275 -17 q 227 -17 168 -1 l 167 -235 q 167 -256 154 -270 q 140 -284 119 -284 q 98 -284 85 -270 q 71 -256 71 -235 l 73 -40 l 73 155 q 71 262 65 350 l 58 449 q 58 484 71 508 q 85 537 113 537 q 132 537 145 523 q 158 510 158 490 q 158 486 157 474 q 154 459 153 446 q 195 475 234 490 q 273 504 309 504 q 409 504 456 415 q 492 345 492 229 q 492 124 436 55 q 375 -17 275 -17 z m 309 406 q 264 406 228 386 q 202 372 163 334 q 169 224 169 102 q 222 81 275 81 q 336 81 369 126 q 396 166 396 229 q 396 318 375 362 q 353 406 309 406 z"},"X":{"x_min":0,"x_max":724,"ha":724,"o":"m 673 659 q 608 580 573 528 l 512 438 q 476 388 445 353 l 552 196 q 616 103 666 43 q 679 27 679 10 q 679 -11 664 -26 q 649 -41 629 -41 q 610 -41 594 -26 q 558 8 519 67 l 454 167 l 377 277 l 209 83 l 119 -18 q 103 -34 83 -34 q 63 -34 48 -19 q 33 -3 33 17 q 33 35 46 50 l 134 148 l 317 361 q 263 433 203 505 l 146 582 q 112 627 83 652 q 62 669 62 691 q 62 711 76 727 q 90 743 111 743 q 153 743 217 654 q 237 625 278 570 q 334 503 384 437 l 496 592 q 604 743 636 743 q 656 743 671 728 q 687 712 687 692 q 687 675 673 659 z"},"*":{"x_min":0,"x_max":530,"ha":530,"o":"m 23 642 q 23 660 36 674 q 48 688 66 688 q 78 688 198 641 q 194 709 194 735 q 194 754 207 766 q 219 778 238 778 q 257 778 269 766 q 282 754 282 735 q 282 708 285 652 q 402 670 428 670 q 446 670 458 657 q 470 644 470 625 q 470 591 434 583 q 399 576 313 566 q 341 540 375 500 q 418 446 418 425 q 418 407 404 394 q 391 381 373 381 q 354 381 339 399 q 310 439 242 514 q 142 400 106 400 q 88 400 75 414 q 62 427 62 445 q 62 461 77 477 q 108 503 168 562 q 128 574 51 604 q 23 616 23 642 z"},"Y":{"x_min":0,"x_max":635,"ha":635,"o":"m 572 625 q 561 606 541 567 l 457 360 q 408 243 365 156 l 304 47 l 278 -6 q 262 -34 235 -34 q 216 -34 200 -20 q 185 -6 185 15 q 185 32 230 119 l 291 229 q 203 342 177 407 q 155 462 104 539 q 34 645 21 667 q 14 680 14 693 q 14 714 30 728 q 45 743 64 743 q 88 743 104 720 l 144 659 q 195 583 212 555 q 249 495 269 443 q 285 403 338 333 l 450 605 q 469 639 502 709 q 516 742 548 742 q 567 742 583 729 q 598 715 598 693 q 598 671 572 625 z"},"c":{"x_min":0,"x_max":514,"ha":514,"o":"m 289 -31 q 188 -31 122 30 q 51 93 51 197 q 51 296 117 402 q 190 519 282 519 q 330 519 389 497 q 464 468 464 426 q 464 408 452 393 q 439 379 421 379 q 407 379 397 387 q 386 396 376 404 q 348 427 282 427 q 232 427 184 338 q 139 257 139 197 q 139 133 183 96 q 224 61 289 61 q 318 61 351 77 l 408 107 q 422 115 429 115 q 447 115 460 100 q 473 86 473 67 q 473 32 398 -1 q 332 -31 289 -31 z"},"!":{"x_min":0,"x_max":238,"ha":238,"o":"m 162 740 l 162 197 q 162 153 118 153 q 75 153 75 197 q 75 217 73 257 q 72 296 72 316 q 72 387 73 528 q 75 669 75 740 q 75 784 118 784 q 162 784 162 740 z m 162 11 q 162 -6 148 -19 q 134 -32 117 -32 q 97 -32 78 -7 q 59 17 59 37 q 59 55 73 67 q 86 80 104 80 q 124 80 144 55 q 162 31 162 11 z"},"/":{"x_min":0,"x_max":512,"ha":512,"o":"m 86 -44 q 68 -44 55 -32 q 41 -20 41 -1 q 41 6 44 15 q 83 120 188 318 q 293 515 332 621 q 396 795 429 794 q 447 793 460 781 q 474 769 474 751 q 474 740 469 724 l 414 591 q 381 501 321 383 l 214 181 l 126 -15 q 113 -44 86 -44 z"},"[":{"x_min":0,"x_max":376,"ha":376,"o":"m 215 -201 q 204 -201 182 -202 q 160 -204 149 -204 q 86 -204 86 -146 q 86 -57 93 197 q 100 451 100 541 l 92 688 l 92 695 q 91 714 103 728 q 116 742 135 742 q 150 742 179 741 q 209 740 224 740 q 233 740 251 741 q 270 742 279 742 q 324 742 324 695 q 324 651 283 647 q 242 644 184 646 q 187 602 187 547 l 180 219 l 172 -108 l 215 -106 q 229 -106 258 -108 q 286 -109 300 -109 q 320 -109 331 -123 q 343 -137 343 -156 q 343 -176 331 -190 q 320 -204 300 -204 q 286 -204 258 -202 q 229 -201 215 -201 z"},"6":{"x_min":0,"x_max":610,"ha":610,"o":"m 292 -35 q 164 -35 104 58 q 54 135 54 263 q 54 504 250 681 l 296 728 q 330 760 347 760 q 366 760 381 746 q 396 732 396 713 q 397 695 346 645 l 247 548 q 207 508 179 427 q 221 446 253 456 q 285 465 305 465 q 419 465 480 404 q 542 343 542 232 q 542 115 476 42 q 407 -35 292 -35 z m 292 366 q 250 366 216 351 q 204 345 152 313 q 149 288 149 263 q 149 175 179 120 q 216 50 294 50 q 368 50 409 103 q 446 151 446 232 q 446 299 408 332 q 369 366 292 366 z"},"r":{"x_min":0,"x_max":480,"ha":480,"o":"m 448 361 q 444 300 399 300 q 357 300 357 348 q 357 357 355 382 l 354 423 q 277 414 230 380 q 187 348 158 284 l 159 17 q 159 -33 111 -33 q 68 -33 68 17 l 68 359 q 68 375 69 408 q 70 440 70 456 q 70 505 113 505 q 161 505 162 424 q 255 515 370 515 q 409 515 429 485 q 448 455 448 395 q 448 370 448 361 z"},"2":{"x_min":0,"x_max":610,"ha":610,"o":"m 492 -1 q 480 -1 458 7 q 436 14 424 14 q 399 14 349 11 q 299 8 274 8 q 255 8 218 3 q 180 -1 161 -1 q 156 -1 146 0 q 135 2 130 2 q 96 2 86 35 q 80 52 80 94 q 80 208 142 277 q 170 309 295 394 q 365 442 388 469 q 430 516 430 579 q 430 610 390 634 q 354 656 320 656 q 275 656 234 630 l 165 576 q 144 559 131 559 q 81 559 81 599 q 81 622 99 639 q 156 692 198 716 q 257 750 320 750 q 399 750 461 707 q 530 659 530 583 q 530 533 516 491 q 502 449 473 415 q 437 371 349 316 q 257 259 229 229 q 174 173 175 93 l 276 102 q 379 108 424 108 q 461 108 494 95 q 538 78 538 48 q 538 29 525 14 q 512 -1 492 -1 z"},"{":{"x_min":0,"x_max":366,"ha":366,"o":"m 126 280 q 153 293 174 332 q 194 368 194 397 q 194 418 191 497 q 188 576 188 597 q 188 693 256 700 q 273 701 306 705 q 340 713 340 739 q 340 765 312 780 q 289 793 261 793 q 230 793 197 779 q 100 737 100 583 l 102 485 l 104 388 l 104 375 q 79 368 43 334 q 3 297 3 271 q 3 250 49 217 q 95 184 95 144 q 95 130 91 104 q 87 77 87 63 q 87 -23 128 -98 q 177 -188 255 -188 q 292 -188 307 -182 q 332 -171 332 -141 q 332 -108 307 -100 q 295 -96 255 -96 q 222 -96 198 -30 q 179 22 179 63 q 179 80 183 112 q 187 144 187 160 q 187 183 165 223 q 146 258 126 280 z"},"9":{"x_min":0,"x_max":610,"ha":610,"o":"m 383 59 q 347 33 269 -4 q 181 -46 147 -46 q 127 -46 114 -32 q 101 -17 101 2 q 101 31 134 46 l 216 74 q 292 104 335 145 q 379 185 416 258 l 437 300 q 409 285 366 271 q 323 258 296 258 q 204 258 137 310 q 55 372 55 487 q 55 624 139 692 q 210 750 327 750 q 417 750 488 677 q 563 599 564 489 q 564 365 518 249 q 468 123 383 59 z m 313 667 q 231 667 190 624 q 149 582 148 496 q 148 424 199 385 q 243 350 311 350 q 350 350 392 374 q 412 384 462 422 q 469 464 469 489 q 468 550 417 608 q 366 667 313 667 z"}," ":{"x_min":0,"x_max":299,"ha":299,"o":""},"I":{"x_min":0,"x_max":546,"ha":546,"o":"m 467 608 q 436 608 389 615 l 310 625 q 299 483 299 354 q 299 319 301 269 q 303 219 303 185 q 303 139 299 101 l 453 103 q 474 103 488 89 q 501 74 501 53 q 501 32 488 17 q 474 3 453 3 q 426 3 371 2 q 316 0 289 0 q 257 0 193 -9 q 128 -18 96 -18 q 75 -18 61 -3 q 47 11 47 32 q 47 53 61 68 q 75 83 96 83 q 127 83 201 93 q 206 132 206 183 q 206 217 202 265 q 199 314 199 347 q 199 460 213 629 l 149 627 l 86 625 q 65 625 51 640 q 37 654 37 676 q 37 721 83 726 q 122 729 230 729 q 328 729 474 708 q 518 702 518 656 q 518 633 501 620 q 486 608 467 608 z"},"H":{"x_min":0,"x_max":768,"ha":768,"o":"m 711 688 q 704 667 704 628 q 704 613 705 584 q 706 556 706 541 q 706 492 697 396 q 688 299 688 250 q 688 213 694 139 q 699 64 699 27 q 699 7 686 -7 q 672 -21 652 -21 q 633 -21 619 -7 q 605 7 605 27 q 605 64 600 139 q 595 213 595 250 q 595 286 597 322 q 514 321 391 297 l 186 257 q 186 213 177 133 q 168 52 168 7 q 168 -13 155 -27 q 141 -41 121 -41 q 101 -41 88 -27 q 74 -13 74 7 q 74 59 83 162 q 91 265 91 316 q 91 343 89 397 q 87 452 87 479 q 87 518 92 595 q 97 672 97 711 q 97 731 111 745 q 124 759 144 759 q 164 759 177 745 q 191 731 191 711 q 191 672 186 594 q 181 516 181 477 l 184 354 l 393 393 q 519 417 604 417 q 610 487 610 628 q 610 665 622 703 q 638 755 667 755 q 686 755 701 742 q 715 729 715 708 q 715 701 711 688 z"},"4":{"x_min":0,"x_max":610,"ha":610,"o":"m 471 213 l 471 33 q 471 -13 426 -13 q 375 -13 375 58 q 375 67 375 83 q 376 99 376 105 l 376 216 l 161 221 q 94 221 68 226 q 23 233 23 260 q 23 282 50 316 l 92 366 l 333 716 q 365 762 416 762 q 471 762 471 714 l 471 308 q 479 309 491 309 q 581 309 581 260 q 581 225 543 216 q 527 211 471 213 z m 376 626 q 246 418 172 315 l 376 310 z"},"~":{"x_min":0,"x_max":598,"ha":598,"o":"m 228 456 q 271 456 305 421 l 359 356 q 391 320 426 317 q 446 316 465 376 q 483 436 514 436 q 532 436 545 424 q 558 412 558 394 q 558 329 519 279 q 479 228 424 228 q 370 228 325 265 q 300 286 265 333 q 238 369 228 369 q 186 369 132 277 q 118 252 94 252 q 77 252 63 264 q 49 277 49 294 q 49 304 54 315 q 80 372 123 411 q 173 456 228 456 z"},"D":{"x_min":0,"x_max":722,"ha":722,"o":"m 525 3 q 450 -48 308 -48 q 272 -48 227 -37 q 171 -24 144 -3 l 139 -3 q 118 -3 104 12 q 89 26 89 47 q 89 99 94 201 q 99 303 99 354 q 99 412 96 525 q 94 639 94 696 q 94 716 115 738 q 135 760 156 760 q 167 760 234 727 q 309 690 321 687 q 459 639 557 541 q 672 425 672 287 q 672 203 633 126 q 593 50 525 3 z m 423 520 q 373 553 193 632 l 195 492 l 197 352 l 189 85 q 192 83 199 79 q 242 50 308 50 q 419 50 470 84 q 517 116 545 171 q 573 225 573 284 q 573 422 423 520 z"},"^":{"x_min":0,"x_max":581,"ha":581,"o":"m 290 804 q 317 804 354 771 q 366 760 408 716 l 485 633 q 499 619 499 604 q 499 585 485 572 q 471 559 454 559 q 438 559 423 573 q 384 617 300 700 q 176 548 141 548 q 124 548 110 562 q 97 575 97 593 q 97 610 112 624 q 139 650 260 789 q 273 804 290 804 z"},"0":{"x_min":0,"x_max":610,"ha":610,"o":"m 298 -19 q 150 -19 82 117 q 30 221 30 389 q 30 530 97 636 q 177 759 313 759 q 442 759 514 650 q 576 555 576 419 q 576 200 506 91 q 437 -19 298 -19 z m 313 665 q 222 665 169 573 q 125 496 125 396 q 125 236 168 155 q 211 75 298 75 q 402 75 447 193 q 478 275 478 401 q 478 533 437 599 q 396 665 313 665 z"},"F":{"x_min":0,"x_max":607,"ha":607,"o":"m 540 642 q 531 642 521 646 q 461 668 361 668 q 329 668 286 663 q 243 659 189 649 l 188 438 q 282 463 330 463 q 405 463 485 454 q 531 449 531 404 q 531 382 517 368 q 503 354 482 354 q 457 354 406 358 q 355 362 330 362 q 296 362 186 334 l 182 -2 q 182 -23 168 -37 q 154 -52 133 -52 q 112 -52 98 -37 q 84 -23 84 -2 q 84 94 88 287 q 92 479 92 576 q 92 597 91 640 q 90 684 90 705 q 90 727 104 741 q 117 756 139 756 q 155 756 167 747 q 228 758 276 763 q 325 768 361 768 q 417 768 490 752 q 588 729 588 693 q 588 674 575 659 q 561 642 540 642 z"},"`":{"x_min":0,"x_max":556,"ha":556,"o":"m 282 619 q 282 601 268 588 q 254 575 236 575 q 215 575 201 596 l 152 668 q 126 704 92 731 q 73 746 73 766 q 73 783 86 797 q 99 811 116 811 q 146 811 215 730 q 282 650 282 619 z"},"k":{"x_min":0,"x_max":540,"ha":540,"o":"m 475 -20 q 448 -20 433 8 q 408 58 356 125 l 270 243 q 242 220 182 180 q 177 104 177 32 q 177 10 163 -3 q 150 -17 129 -17 q 80 -17 80 49 q 80 90 85 171 q 91 251 91 292 q 91 366 93 462 q 95 557 95 630 q 95 652 93 682 q 91 712 91 734 q 91 756 104 770 q 118 783 139 783 q 160 783 173 770 q 187 756 187 734 q 187 711 189 681 q 191 650 191 628 l 188 471 q 186 386 187 301 q 253 352 314 412 l 422 523 q 438 540 457 540 q 476 540 491 524 q 506 509 506 489 q 506 473 492 457 q 432 386 344 306 l 451 161 q 525 59 525 28 q 525 8 510 -6 q 495 -20 475 -20 z"},"u":{"x_min":0,"x_max":520,"ha":520,"o":"m 466 285 q 466 250 467 180 q 467 109 467 74 q 467 63 469 42 q 471 20 471 9 q 471 -12 457 -26 q 442 -39 422 -39 q 384 -39 374 7 q 313 -24 233 -24 q 169 -24 127 4 q 81 35 72 95 q 53 225 53 326 q 53 393 68 478 q 75 521 114 521 q 135 521 149 507 q 164 494 164 473 q 164 450 156 401 q 149 352 149 326 q 149 244 155 186 q 160 128 171 93 q 187 84 203 79 q 218 75 233 75 q 299 75 372 96 l 371 195 l 370 290 q 370 395 379 473 q 385 518 427 518 q 448 518 462 504 q 476 490 475 470 z"},"]":{"x_min":0,"x_max":376,"ha":376,"o":"m 214 -201 q 225 -201 247 -202 q 269 -204 280 -204 q 343 -204 343 -146 q 343 -57 336 197 q 329 451 329 541 l 336 688 l 337 695 q 338 714 325 728 q 313 742 294 742 q 279 742 249 741 q 220 740 205 740 q 196 740 177 741 q 159 742 150 742 q 105 742 105 695 q 105 651 146 647 q 187 644 246 646 q 242 602 242 547 l 249 219 l 256 -108 l 214 -106 q 200 -106 171 -108 q 143 -109 128 -109 q 109 -109 98 -123 q 86 -137 86 -156 q 86 -176 98 -190 q 109 -204 128 -204 q 143 -204 171 -202 q 200 -201 214 -201 z"},"U":{"x_min":0,"x_max":737,"ha":737,"o":"m 386 -20 q 234 -20 159 68 q 99 138 83 276 q 76 338 76 523 q 76 592 79 634 q 82 678 87 696 q 100 731 131 731 q 176 731 176 649 l 176 362 q 176 66 383 66 q 578 66 578 564 q 578 583 578 612 q 578 642 578 651 q 578 682 588 705 q 602 734 629 734 q 678 734 678 667 q 678 647 678 606 q 678 566 678 546 q 678 -20 386 -20 z"},"o":{"x_min":0,"x_max":526,"ha":526,"o":"m 251 -29 q 169 -29 110 32 q 44 99 41 213 q 38 323 96 407 q 165 506 287 506 q 384 506 435 417 q 475 345 473 243 q 472 135 417 58 q 354 -29 251 -29 z m 280 407 q 208 408 168 339 q 137 284 137 213 q 137 142 175 103 q 208 70 251 70 q 302 70 338 107 q 380 148 382 218 q 389 407 280 407 z"},"N":{"x_min":0,"x_max":797,"ha":797,"o":"m 752 108 q 752 85 745 30 q 737 -19 692 -19 q 666 -19 628 16 q 430 204 172 559 l 170 448 l 168 336 q 168 296 170 215 q 172 134 172 93 q 172 -39 121 -39 q 94 -39 79 -21 q 64 -6 64 15 q 64 35 68 77 q 71 118 71 139 q 71 169 73 229 q 75 290 75 320 q 75 352 73 417 q 72 482 72 515 q 72 545 66 606 q 60 667 60 698 q 60 720 79 739 q 99 757 123 757 q 149 757 187 701 q 309 519 406 398 q 521 255 660 125 q 661 146 660 187 l 658 248 q 658 462 642 589 q 640 602 628 641 q 619 674 619 692 q 619 749 670 749 q 755 749 755 432 q 755 378 754 270 q 752 163 752 108 z"},"+":{"x_min":0,"x_max":480,"ha":480,"o":"m 446 314 q 446 296 434 282 q 422 269 404 269 q 398 269 386 271 q 375 273 368 273 l 319 272 q 290 271 271 272 l 271 157 q 271 113 227 113 q 206 113 195 124 q 184 135 184 157 l 183 213 l 183 270 q 124 267 99 267 q 23 267 23 312 q 23 343 50 351 q 60 354 99 354 q 124 354 183 357 l 182 414 q 182 458 187 476 q 191 493 202 502 q 212 511 228 511 q 247 511 260 499 q 272 487 272 468 q 272 460 271 442 q 269 424 269 415 l 270 359 l 306 357 q 316 357 336 359 q 356 360 366 360 q 446 360 446 314 z"},"G":{"x_min":0,"x_max":680,"ha":680,"o":"m 635 295 q 604 146 508 56 q 411 -34 279 -34 q 159 -34 99 33 q 39 101 39 235 q 39 361 98 495 q 158 629 252 712 q 314 767 384 767 q 429 767 501 738 q 590 703 590 660 q 590 640 576 625 q 561 609 541 609 q 530 609 510 621 q 436 667 384 667 q 348 667 308 628 q 288 609 250 559 q 137 410 137 235 q 137 143 166 106 q 196 66 279 66 q 366 66 431 122 q 499 180 525 289 q 390 282 293 237 q 282 231 271 231 q 250 231 236 248 q 223 263 223 283 q 223 310 249 326 q 354 391 612 391 q 633 391 647 376 q 662 362 662 341 q 662 309 635 295 z"},"q":{"x_min":0,"x_max":520,"ha":520,"o":"m 444 154 l 421 -34 q 409 -138 409 -223 q 409 -244 396 -258 q 383 -271 361 -271 q 316 -271 313 -222 q 312 -201 316 -168 l 322 -114 l 332 -6 q 290 -17 272 -17 q 166 -17 100 38 q 29 97 29 202 q 29 345 110 431 q 192 520 334 519 q 361 519 375 498 q 396 517 412 517 q 432 517 446 501 q 460 485 460 465 q 460 321 444 154 z m 300 435 q 210 418 164 343 q 127 282 127 200 q 127 142 162 106 q 201 66 269 68 q 315 69 337 118 q 360 173 362 304 l 369 435 q 359 431 334 433 q 308 436 300 435 z"},"d":{"x_min":0,"x_max":587,"ha":587,"o":"m 518 431 q 512 359 512 288 q 512 125 527 42 q 528 35 528 31 q 528 11 514 -1 q 500 -14 482 -14 q 452 -14 438 30 q 403 4 365 -9 q 327 -22 286 -22 q 185 -22 119 45 q 50 114 50 222 q 50 352 119 431 q 188 509 299 509 q 355 509 386 492 l 432 458 q 439 664 448 735 q 455 778 493 778 q 537 778 537 731 q 537 663 518 431 z m 301 418 q 219 418 178 370 q 137 321 137 224 q 137 161 181 115 q 226 70 286 70 q 327 70 355 85 q 372 94 410 125 q 417 132 424 141 l 422 225 l 423 282 l 424 339 q 405 379 375 399 q 344 418 301 418 z"},"1":{"x_min":0,"x_max":450,"ha":450,"o":"m 344 0 l 247 0 l 150 0 q 116 0 102 4 q 77 13 77 42 q 77 91 154 91 l 177 90 l 197 89 q 197 113 193 159 q 189 205 189 228 q 189 290 200 416 q 211 541 210 605 q 145 554 127 554 q 107 554 93 569 q 79 583 79 603 q 79 625 121 658 q 147 677 195 718 q 238 761 277 761 q 310 761 310 724 q 310 712 307 690 q 304 668 304 657 q 304 641 306 608 q 308 575 308 559 q 308 503 296 393 q 284 283 284 228 q 284 199 288 159 q 292 118 292 92 l 344 93 q 364 93 378 80 q 391 66 391 46 q 391 26 378 13 q 364 0 344 0 z"},"5":{"x_min":0,"x_max":610,"ha":610,"o":"m 274 -31 q 136 -31 70 72 q 62 86 62 99 q 62 118 77 132 q 92 146 111 146 q 131 146 149 125 q 175 93 188 84 q 220 63 274 63 q 359 63 415 127 q 468 189 468 275 q 468 347 444 391 q 414 447 351 447 q 299 447 266 433 q 239 422 212 395 l 159 336 q 138 314 115 314 q 96 314 82 328 q 68 342 68 362 q 68 372 76 449 q 93 603 93 651 q 93 668 84 688 q 76 708 76 718 q 76 748 127 748 q 137 748 156 746 q 176 745 186 745 q 214 745 271 747 q 328 749 356 749 q 369 749 396 748 q 423 747 436 747 q 445 747 463 750 q 480 754 489 754 q 508 754 523 740 q 538 726 538 707 q 538 652 422 652 q 407 652 384 653 q 361 654 356 654 l 273 653 l 191 650 q 191 628 173 488 q 240 541 351 541 q 458 541 515 457 q 563 386 563 275 q 563 144 486 58 q 406 -31 274 -31 z"}}}
